<svg aria-hidden="true" style="position: absolute; width: 0; height: 0; overflow: hidden;" version="1.1" xmlns="http://www.w3.org/2000/svg" xmlns:xlink="http://www.w3.org/1999/xlink">
  <defs>

    <symbol id="telegram" viewBox="0 0 32 32">
      <path d="M31.88 5.053l-4.813 22.733c-0.333 1.613-1.307 2-2.667 1.253l-7.333-5.427-3.547 3.427c-0.4 0.4-0.733 0.747-1.467 0.747-0.96 0-0.8-0.36-1.12-1.267l-2.533-8.253-7.267-2.267c-1.573-0.467-1.587-1.547 0.347-2.333l28.347-10.933c1.293-0.573 2.533 0.32 2.053 2.32z"></path>
    </symbol>
    <symbol id="telegram2" viewBox="0 0 38 32">
      <path d="M38.4 0l-38.4 18 12.272 3.788 18.928-14.788-14.397 16.186 0.012 0.004-0.014-0.004v8.814l6.882-6.691 8.718 2.691 6-28z"></path>
    </symbol>
    <symbol id="googlecloud" viewBox="0 0 32 32">
		<path d="M16.253 3.173c-0.086-0.002-0.187-0.003-0.289-0.003-5.719 0-10.539 3.854-12.002 9.106l-0.021 0.088c0.071-0.027-0.073 0.017 0 0-5.167 3.401-5.229 10.813-0.329 14.588l0.008-0.009-0.009 0.040c1.482 1.129 3.36 1.808 5.396 1.808 0.014 0 0.028-0 0.042-0h6.895l0.040 0.040h6.923c8.916 0.071 12.501-11.473 5.113-16.467-0.672-2.426-1.986-4.488-3.749-6.058l-0.012-0.011-0.057 0.057 0.008-0.067c-2.115-1.873-4.893-3.040-7.941-3.112l-0.015-0zM15.776 8.701c1.659-0.053 3.357 0.491 4.648 1.533 1.523 1.277 2.484 3.181 2.484 5.309 0 0.045-0 0.090-0.001 0.136l0-0.007v0.691c4.707-0.093 4.707 7.016 0 6.924h-6.924l-0.011 0.012v-0.053h-6.925c-0.516 0-1.005-0.113-1.444-0.316l0.021 0.009h0.001c-1.21-0.558-2.034-1.76-2.034-3.154 0-1.912 1.55-3.463 3.463-3.463 1.395 0 2.597 0.825 3.145 2.013l0.009 0.021 4.017-4.016c-1.314-1.701-3.194-2.909-5.354-3.344l-0.058-0.010c0.024-0.013 0.053-0.035 0.072-0.031 1.221-1.337 2.95-2.191 4.879-2.254l0.011-0z"></path>
    </symbol>
    <symbol id="envelope-regular" viewBox="0 0 32 32">
		<path d="M4 7c-0.55 0-1 0.45-1 1v1.381l10.781 8.85c1.294 1.063 3.15 1.063 4.444 0l10.775-8.85v-1.381c0-0.55-0.45-1-1-1h-24zM3 13.262v10.738c0 0.55 0.45 1 1 1h24c0.55 0 1-0.45 1-1v-10.738l-8.875 7.287c-2.4 1.969-5.856 1.969-8.25 0l-8.875-7.287zM0 8c0-2.206 1.794-4 4-4h24c2.206 0 4 1.794 4 4v16c0 2.206-1.794 4-4 4h-24c-2.206 0-4-1.794-4-4v-16z"></path>
    </symbol>
    <symbol id="github" viewBox="0 0 31 32">
		<path d="M10.369 24.837c0 0.125-0.144 0.225-0.325 0.225-0.206 0.019-0.35-0.081-0.35-0.225 0-0.125 0.144-0.225 0.325-0.225 0.188-0.019 0.35 0.081 0.35 0.225zM8.425 24.556c-0.044 0.125 0.081 0.269 0.269 0.306 0.162 0.063 0.35 0 0.387-0.125s-0.081-0.269-0.269-0.325c-0.162-0.044-0.344 0.019-0.387 0.144zM11.188 24.45c-0.181 0.044-0.306 0.163-0.287 0.306 0.019 0.125 0.181 0.206 0.369 0.163 0.181-0.044 0.306-0.163 0.287-0.288-0.019-0.119-0.188-0.2-0.369-0.181zM15.3 0.5c-8.669 0-15.3 6.581-15.3 15.25 0 6.931 4.362 12.863 10.594 14.95 0.8 0.144 1.081-0.35 1.081-0.756 0-0.387-0.019-2.525-0.019-3.837 0 0-4.375 0.938-5.294-1.863 0 0-0.713-1.819-1.737-2.288 0 0-1.431-0.981 0.1-0.962 0 0 1.556 0.125 2.412 1.613 1.369 2.413 3.662 1.719 4.556 1.306 0.144-1 0.55-1.694 1-2.106-3.494-0.387-7.019-0.894-7.019-6.906 0-1.719 0.475-2.581 1.475-3.681-0.162-0.406-0.694-2.081 0.162-4.244 1.306-0.406 4.313 1.688 4.313 1.688 1.25-0.35 2.594-0.531 3.925-0.531s2.675 0.181 3.925 0.531c0 0 3.006-2.1 4.313-1.688 0.856 2.169 0.325 3.838 0.163 4.244 1 1.106 1.613 1.969 1.613 3.681 0 6.031-3.681 6.512-7.175 6.906 0.575 0.494 1.063 1.431 1.063 2.9 0 2.106-0.019 4.712-0.019 5.225 0 0.406 0.288 0.9 1.081 0.756 6.25-2.075 10.488-8.006 10.488-14.938 0-8.669-7.031-15.25-15.7-15.25zM6.075 22.056c-0.081 0.063-0.063 0.206 0.044 0.325 0.1 0.1 0.244 0.144 0.325 0.063 0.081-0.063 0.063-0.206-0.044-0.325-0.1-0.1-0.244-0.144-0.325-0.063zM5.4 21.55c-0.044 0.081 0.019 0.181 0.144 0.244 0.1 0.063 0.225 0.044 0.269-0.044 0.044-0.081-0.019-0.181-0.144-0.244-0.125-0.038-0.225-0.019-0.269 0.044zM7.425 23.775c-0.1 0.081-0.063 0.269 0.081 0.387 0.144 0.144 0.325 0.163 0.406 0.063 0.081-0.081 0.044-0.269-0.081-0.387-0.138-0.144-0.325-0.163-0.406-0.063zM6.713 22.856c-0.1 0.063-0.1 0.225 0 0.369s0.269 0.206 0.35 0.144c0.1-0.081 0.1-0.244 0-0.387-0.088-0.144-0.25-0.206-0.35-0.125z"></path>
    </symbol>
    <symbol id="phone" viewBox="0 0 32 32">
		<path d="M22 20c-2 2-2 4-4 4s-4-2-6-4-4-4-4-6 2-2 4-4-4-8-6-8-6 6-6 6c0 4 4.109 12.109 8 16s12 8 16 8c0 0 6-4 6-6s-6-8-8-6z"></path>
    </symbol>
    <symbol id="google3" viewBox="0 0 32 32">
		<path d="M16 0c-8.838 0-16 7.162-16 16s7.162 16 16 16 16-7.163 16-16-7.163-16-16-16zM16.238 28c-6.631 0-12-5.369-12-12s5.369-12 12-12c3.238 0 5.95 1.181 8.037 3.138l-3.256 3.138c-0.894-0.856-2.45-1.85-4.781-1.85-4.1 0-7.438 3.394-7.438 7.575s3.344 7.575 7.438 7.575c4.75 0 6.531-3.413 6.806-5.175h-6.806v-4.113h11.331c0.1 0.6 0.188 1.2 0.188 1.988 0.006 6.856-4.588 11.725-11.519 11.725z"></path>
    </symbol>
    <symbol id="linkedin" viewBox="0 0 32 32">
		<path d="M29 0h-26c-1.65 0-3 1.35-3 3v26c0 1.65 1.35 3 3 3h26c1.65 0 3-1.35 3-3v-26c0-1.65-1.35-3-3-3zM12 26h-4v-14h4v14zM10 10c-1.106 0-2-0.894-2-2s0.894-2 2-2c1.106 0 2 0.894 2 2s-0.894 2-2 2zM26 26h-4v-8c0-1.106-0.894-2-2-2s-2 0.894-2 2v8h-4v-14h4v2.481c0.825-1.131 2.087-2.481 3.5-2.481 2.488 0 4.5 2.238 4.5 5v9z"></path>
    </symbol>
	<symbol id="prometheus" viewBox="0 0 32 32">
		<path d="M26.996 8.165c-0.27-0.955-0.65-1.847-1.14-2.671-0.488-0.82-1.076-1.576-1.762-2.257-0.69-0.682-1.451-1.26-2.279-1.742-0.826-0.478-1.72-0.848-2.679-1.112-0.959-0.26-1.952-0.388-2.981-0.382-1.027 0.006-2.017 0.145-2.967 0.414-0.951 0.274-1.843 0.652-2.671 1.14-0.828 0.492-1.583 1.076-2.265 1.766s-1.264 1.451-1.75 2.277c-0.482 0.83-0.856 1.724-1.12 2.683s-0.388 1.952-0.382 2.977c0.006 1.030 0.141 2.017 0.414 2.969s0.656 1.839 1.147 2.671c0.495 0.828 1.084 1.583 1.774 2.265s1.451 1.264 2.283 1.746c0.834 0.486 1.728 0.86 2.683 1.12 0.951 0.264 1.944 0.392 2.971 0.386 1.030-0.006 2.021-0.145 2.977-0.418 0.955-0.27 1.847-0.652 2.667-1.147 0.824-0.491 1.579-1.080 2.261-1.77 0.678-0.69 1.26-1.451 1.738-2.283 0.482-0.838 0.852-1.728 1.112-2.683 0.264-0.955 0.392-1.944 0.386-2.975-0.006-1.025-0.145-2.015-0.418-2.973zM14.182 12.555c-0.553-0.281-1.124-0.446-1.506-0.928-0.212-0.272-0.337-0.581-0.307-0.929 0.030-0.369 0.262-0.587 0.67-0.674 0.337-0.071 0.616 0.065 0.803 0.382 0.216 0.379 0.321 0.791 0.335 1.227 0.010 0.295 0.004 0.585 0.006 0.922zM16.249 18.074c-0.44 0.002-0.866-0.034-1.28-0.109l-0.022-4.277c0-0.050 0.008-0.095 0.010-0.135 0.422 0.028 0.813 0.075 1.207 0.073 0.382-0.002 0.769-0.053 1.171-0.087 0.004 0.050 0.012 0.111 0.012 0.168 0.008 1.421 0.010 2.846 0.026 4.267-0.367 0.065-0.741 0.097-1.124 0.099zM22.575 13.833c-0.359 0.832-0.846 1.564-1.463 2.19-0.616 0.632-1.342 1.126-2.182 1.494-0.268 0.117-0.539 0.214-0.814 0.291-0.004-1.463-0.012-2.925-0.022-4.386 0-0.115 0.063-0.139 0.145-0.176 0.454-0.22 0.927-0.414 1.356-0.682 0.527-0.325 0.88-0.813 1.003-1.429 0.172-0.862-0.218-1.587-1.151-1.835-0.805-0.214-1.427 0.238-1.742 0.844-0.262 0.511-0.363 1.050-0.367 1.617-0.002 0.283-0.004 0.571 0.008 0.854 0 0.107-0.030 0.161-0.133 0.172-0.428 0.038-0.854 0.089-1.282 0.099-0.272 0.010-0.545-0.048-0.816-0.075-0.131-0.014-0.176-0.079-0.176-0.218-0.002-0.444 0.004-0.888-0.050-1.328-0.075-0.646-0.289-1.247-0.813-1.681-0.396-0.331-0.856-0.382-1.338-0.234-0.493 0.153-0.878 0.438-1.040 0.947-0.18 0.571-0.044 1.104 0.27 1.599 0.333 0.515 0.824 0.83 1.373 1.068 0.25 0.105 0.503 0.216 0.757 0.317 0.095 0.042 0.093 0.115 0.093 0.194l0.022 4.304c-0.222-0.067-0.438-0.147-0.652-0.238-0.84-0.359-1.572-0.846-2.202-1.47-0.628-0.62-1.126-1.346-1.49-2.176-0.369-0.828-0.553-1.716-0.557-2.665-0.004-0.945 0.17-1.839 0.529-2.683 0.355-0.844 0.846-1.577 1.466-2.198 0.624-0.624 1.35-1.122 2.186-1.486 0.832-0.369 1.728-0.553 2.685-0.557 0.949-0.004 1.843 0.17 2.687 0.529 0.844 0.355 1.576 0.846 2.198 1.463 0.624 0.612 1.118 1.342 1.486 2.182s0.553 1.732 0.557 2.677c0.004 0.951-0.17 1.841-0.531 2.673zM18.383 10.436c0.295-0.545 1.001-0.618 1.377-0.129 0.174 0.222 0.153 0.482 0.095 0.735-0.093 0.394-0.321 0.709-0.666 0.92s-0.707 0.382-1.096 0.593c-0.010-0.767-0.063-1.466 0.289-2.118z"></path>
		<path d="M16.392 26.164c-2.111 0.012-4.221 0.020-6.33 0.036-0.38 0.004-0.719-0.093-0.884-0.448-0.174-0.375-0.188-0.777 0.048-1.149 0.147-0.232 0.377-0.331 0.634-0.371 0.097-0.016 0.196-0.012 0.293-0.014 4.18-0.022 8.359-0.044 12.539-0.065 0.543-0.002 0.876 0.186 0.995 0.618 0.137 0.497 0.052 1.050-0.418 1.256-0.164 0.073-0.363 0.097-0.547 0.099-2.111 0.018-4.221 0.028-6.33 0.038z"></path>
		<path d="M16.4 27.43c1.841-0.010 3.682-0.020 5.523-0.028 0.48-0.002 0.791 0.226 0.908 0.662 0.127 0.476-0.038 0.973-0.42 1.177-0.137 0.073-0.311 0.109-0.468 0.111-3.682 0.024-7.366 0.044-11.048 0.061-0.565 0.002-0.884-0.323-0.882-0.882 0-0.186-0.006-0.382 0.050-0.557 0.103-0.327 0.42-0.513 0.813-0.515 1.841-0.010 3.684-0.020 5.525-0.030z"></path>
		<path d="M16.409 30.529c1.348-0.008 2.695-0.014 4.043-0.020 0.313-0.002 0.361 0.038 0.291 0.299-0.25 0.937-1.136 1.633-2.243 1.661-1.375 0.034-2.753 0.036-4.13 0.024-1.12-0.010-2.15-0.822-2.295-1.756-0.032-0.204 0.109-0.184 0.26-0.184 1.36-0.008 2.717-0.016 4.075-0.024z"></path>
	</symbol>
	<symbol id="go-it" viewBox="0 0 32 32">
		<path d="M17.878 15.976v4.854h14.122v-9.707h-14.122v4.854zM23.329 16.079v2.238h-1.268v-4.476h1.268v2.238zM28.098 14.445v0.604h-1.232l-0.006 3.262h-1.268l-0.006-3.262h-1.232v-1.207h3.744v0.604z"></path>
		<path d="M0 16.018v4.86h14.201l0.55-0.796c0.302-0.437 1.056-1.527 1.674-2.419 0.73-1.055 1.122-1.631 1.116-1.64-0.006-0.009-0.199-0.29-0.43-0.626-0.23-0.335-0.673-0.978-0.983-1.427-0.31-0.45-0.87-1.262-1.244-1.805-0.373-0.544-0.687-0.991-0.694-0.996s-3.204-0.010-7.101-0.010h-7.089v4.86zM5.868 13.721c0.448 0.045 0.813 0.182 1.161 0.432 0.102 0.073 0.334 0.263 0.335 0.276 0.001 0.004-0.178 0.224-0.396 0.49l-0.398 0.484-0.044-0.038c-0.328-0.278-0.495-0.374-0.737-0.426-0.16-0.034-0.41-0.034-0.532 0-0.344 0.095-0.606 0.379-0.712 0.768-0.023 0.088-0.027 0.133-0.027 0.305 0 0.171 0.004 0.218 0.028 0.311 0.057 0.223 0.19 0.44 0.346 0.568 0.089 0.072 0.265 0.161 0.368 0.188 0.257 0.066 0.569 0.040 0.828-0.067 0.050-0.021 0.098-0.045 0.105-0.055 0.009-0.010 0.012-0.066 0.010-0.154l-0.004-0.139-0.448-0.004-0.449-0.002v-1.146h2.134v2.049l-0.118 0.098c-0.382 0.316-0.849 0.53-1.345 0.616-0.181 0.032-0.61 0.039-0.796 0.013-0.539-0.074-0.981-0.285-1.328-0.634-0.309-0.31-0.507-0.69-0.602-1.154-0.032-0.156-0.034-0.182-0.034-0.488 0-0.304 0.001-0.332 0.032-0.47 0.078-0.352 0.205-0.643 0.398-0.909 0.36-0.494 0.917-0.823 1.533-0.907 0.15-0.021 0.522-0.024 0.691-0.006zM11.354 13.767c0.457 0.083 0.822 0.255 1.146 0.54 0.851 0.749 1.015 2.068 0.373 3.021-0.526 0.78-1.49 1.155-2.465 0.957-0.801-0.162-1.434-0.711-1.699-1.474-0.166-0.478-0.169-1.033-0.009-1.511 0.271-0.813 0.948-1.387 1.805-1.53 0.209-0.035 0.218-0.035 0.482-0.030 0.163 0.002 0.278 0.012 0.366 0.028z"></path>
		<path d="M10.713 14.956c-0.385 0.073-0.679 0.365-0.79 0.778-0.039 0.148-0.038 0.446 0.001 0.595 0.084 0.32 0.298 0.585 0.569 0.709 0.151 0.068 0.252 0.089 0.433 0.090 0.19 0 0.311-0.026 0.456-0.1 0.285-0.143 0.488-0.419 0.55-0.754 0.024-0.126 0.027-0.331 0.006-0.445-0.072-0.41-0.343-0.729-0.72-0.848-0.128-0.040-0.368-0.052-0.506-0.026z"></path>
	</symbol>
  <symbol id="dija" viewBox="0 0 32 32">
    <path fill="#fff" style="fill: var(--color1, #fff)" d="M16 32c-8.96 0-11.372-0.453-13.46-2.54-2.097-2.102-2.54-4.5-2.54-13.46s0.453-11.358 2.54-13.46c2.087-2.087 4.5-2.54 13.46-2.54s11.372 0.453 13.46 2.54c2.097 2.102 2.54 4.5 2.54 13.46s-0.443 11.358-2.54 13.46c-2.087 2.087-4.5 2.54-13.46 2.54z"></path>
    <path fill="#000" style="fill: var(--color2, #000)" d="M22.277 15.985c-0.61 0-1.009-0.404-1.009-0.999 0-0.586 0.404-0.985 1.009-0.985h1.595v1.984h-1.595zM25.206 12.849h-3.087c-1.31 0-2.206 0.857-2.206 2.087 0 0.975 0.556 1.713 1.438 1.969l-1.684 2.565h1.492l1.516-2.334h1.191v2.334h1.339v-6.622zM8.507 14.587v-1.999h2.594v5.666h-3.254c0.35-0.61 0.66-2.023 0.66-3.668zM12.475 11.308h-5.292v3.333c0 1.698-0.3 3.023-0.699 3.618h-0.635v3.023h1.31v-1.787h4.953v1.787h1.31v-3.023h-0.945v-6.951zM16.468 18.348l-0.118-0.079 1.546-5.42h-3.126l-0.335 1.206 1.817-0.015-1.182 4.135c-0.207 0.753 0.3 1.452 1.127 1.452 0.261 0 0.517-0.064 0.802-0.246l2.127-1.438-0.65-0.96-2.009 1.364zM17.374 11.604c0.66 0 0.935-0.246 0.935-0.832 0-0.61-0.286-0.857-0.935-0.857s-0.935 0.246-0.935 0.857c0.005 0.586 0.276 0.832 0.935 0.832z"></path>
  </symbol>
  <symbol id="location" viewBox="0 0 32 32">
    <path d="M16 0c-5.523 0-10 4.477-10 10 0 10 10 22 10 22s10-12 10-22c0-5.523-4.477-10-10-10zM16 16.125c-3.383 0-6.125-2.742-6.125-6.125s2.742-6.125 6.125-6.125 6.125 2.742 6.125 6.125-2.742 6.125-6.125 6.125zM12.125 10c0-2.14 1.735-3.875 3.875-3.875s3.875 1.735 3.875 3.875c0 2.14-1.735 3.875-3.875 3.875s-3.875-1.735-3.875-3.875z"></path>
  </symbol>
	
  </defs>
</svg>
